<svg width="292" height="48" viewBox="0 0 292 48" fill="none" xmlns="http://www.w3.org/2000/svg">
<path d="M56 34.9379V11.1499H71.1418V14.7623H60.2174V21.2203H70.3575V24.8327H60.2174V31.3256H71.2328V34.9379H56Z" fill="#F5F5F5"/>
<path d="M90.8592 17.0969L84.641 34.9379H80.0939L73.8758 17.0969H78.2637L82.2765 30.3499H82.4584L86.4826 17.0969H90.8592Z" fill="#F5F5F5"/>
<path d="M100.843 35.2864C99.0923 35.2864 97.5804 34.9147 96.3072 34.1713C95.0416 33.4202 94.0677 32.3593 93.3857 30.9887C92.7036 29.6104 92.3626 27.9881 92.3626 26.122C92.3626 24.2868 92.7036 22.6761 93.3857 21.29C94.0753 19.8962 95.0378 18.8121 96.2731 18.0377C97.5084 17.2557 98.9596 16.8646 100.627 16.8646C101.703 16.8646 102.719 17.0427 103.673 17.3989C104.636 17.7474 105.485 18.2894 106.22 19.025C106.963 19.7607 107.546 20.6976 107.97 21.8359C108.395 22.9665 108.607 24.3139 108.607 25.878V27.1673H94.2951V24.3332H104.662C104.655 23.5279 104.484 22.8116 104.151 22.1844C103.817 21.5494 103.351 21.05 102.753 20.686C102.162 20.3221 101.472 20.1401 100.684 20.1401C99.8425 20.1401 99.1036 20.3492 98.467 20.7673C97.8304 21.1777 97.3341 21.7198 96.9779 22.3935C96.6293 23.0594 96.4512 23.7912 96.4436 24.5887V27.0628C96.4436 28.1004 96.6293 28.9909 97.0006 29.7343C97.3719 30.4699 97.8911 31.0352 98.558 31.4301C99.2249 31.8173 100.005 32.0109 100.9 32.0109C101.498 32.0109 102.04 31.9257 102.525 31.7554C103.01 31.5773 103.431 31.3178 103.787 30.9771C104.143 30.6364 104.412 30.2144 104.594 29.7111L108.437 30.1524C108.194 31.1901 107.732 32.0961 107.05 32.8704C106.375 33.637 105.511 34.2333 104.458 34.6592C103.404 35.0773 102.199 35.2864 100.843 35.2864Z" fill="#F5F5F5"/>
<path d="M112.088 34.9379V17.0969H116.079V20.0704H116.26C116.579 19.0405 117.124 18.2468 117.897 17.6893C118.678 17.124 119.568 16.8414 120.569 16.8414C120.796 16.8414 121.05 16.853 121.33 16.8762C121.618 16.8917 121.857 16.9188 122.047 16.9575V20.8254C121.872 20.7635 121.596 20.7093 121.217 20.6628C120.845 20.6086 120.485 20.5815 120.137 20.5815C119.387 20.5815 118.712 20.748 118.113 21.0809C117.522 21.4062 117.056 21.8592 116.715 22.4399C116.374 23.0207 116.204 23.6905 116.204 24.4494V34.9379H112.088Z" fill="#F5F5F5"/>
<path d="M124.962 34.9379V11.1499H133.875C135.557 11.1499 136.955 11.4209 138.069 11.963C139.191 12.4973 140.028 13.229 140.582 14.1583C141.142 15.0875 141.423 16.1406 141.423 17.3176C141.423 18.2855 141.241 19.1141 140.877 19.8033C140.513 20.4847 140.025 21.0384 139.411 21.4642C138.797 21.8901 138.111 22.196 137.353 22.3819V22.6142C138.179 22.6606 138.971 22.92 139.729 23.3924C140.495 23.857 141.12 24.5152 141.605 25.367C142.09 26.2188 142.332 27.2486 142.332 28.4566C142.332 29.6878 142.041 30.7952 141.457 31.7786C140.873 32.7543 139.994 33.5247 138.82 34.09C137.645 34.6553 136.167 34.9379 134.386 34.9379H124.962ZM129.18 31.3372H133.716C135.246 31.3372 136.349 31.0391 137.024 30.4428C137.706 29.8388 138.047 29.0645 138.047 28.1198C138.047 27.4151 137.876 26.7802 137.535 26.2149C137.194 25.6419 136.709 25.1927 136.08 24.8675C135.451 24.5345 134.701 24.3681 133.829 24.3681H129.18V31.3372ZM129.18 21.2668H133.352C134.079 21.2668 134.735 21.1313 135.318 20.8603C135.902 20.5815 136.36 20.1904 136.694 19.6871C137.035 19.176 137.205 18.5721 137.205 17.8751C137.205 16.9537 136.887 16.1948 136.251 15.5985C135.622 15.0023 134.686 14.7042 133.443 14.7042H129.18V21.2668Z" fill="#F5F5F5"/>
<path d="M145.819 34.9379V17.0969H149.934V34.9379H145.819ZM147.888 14.5648C147.237 14.5648 146.676 14.3441 146.206 13.9027C145.736 13.4536 145.501 12.9154 145.501 12.2882C145.501 11.6532 145.736 11.1151 146.206 10.6737C146.676 10.2246 147.237 10 147.888 10C148.548 10 149.108 10.2246 149.571 10.6737C150.041 11.1151 150.276 11.6532 150.276 12.2882C150.276 12.9154 150.041 13.4536 149.571 13.9027C149.108 14.3441 148.548 14.5648 147.888 14.5648Z" fill="#F5F5F5"/>
<path d="M161.783 35.2864C160.077 35.2864 158.6 34.9031 157.349 34.1365C156.099 33.3699 155.129 32.2974 154.439 30.9191C153.757 29.5407 153.416 27.9301 153.416 26.0871C153.416 24.2442 153.757 22.6296 154.439 21.2436C155.129 19.8575 156.099 18.7811 157.349 18.0145C158.6 17.2479 160.077 16.8646 161.783 16.8646C163.488 16.8646 164.965 17.2479 166.216 18.0145C167.466 18.7811 168.433 19.8575 169.115 21.2436C169.804 22.6296 170.149 24.2442 170.149 26.0871C170.149 27.9301 169.804 29.5407 169.115 30.9191C168.433 32.2974 167.466 33.3699 166.216 34.1365C164.965 34.9031 163.488 35.2864 161.783 35.2864ZM161.805 31.918C162.73 31.918 163.503 31.6586 164.124 31.1397C164.746 30.6132 165.208 29.9085 165.511 29.0258C165.822 28.143 165.977 27.1596 165.977 26.0755C165.977 24.9837 165.822 23.9964 165.511 23.1136C165.208 22.2231 164.746 21.5146 164.124 20.988C163.503 20.4615 162.73 20.1982 161.805 20.1982C160.858 20.1982 160.07 20.4615 159.441 20.988C158.819 21.5146 158.353 22.2231 158.043 23.1136C157.739 23.9964 157.588 24.9837 157.588 26.0755C157.588 27.1596 157.739 28.143 158.043 29.0258C158.353 29.9085 158.819 30.6132 159.441 31.1397C160.07 31.6586 160.858 31.918 161.805 31.918Z" fill="#F5F5F5"/>
<path d="M177.757 24.4842V34.9379H173.642V11.1499H177.666V20.1285H177.871C178.28 19.1218 178.913 18.3281 179.769 17.7474C180.633 17.1589 181.732 16.8646 183.066 16.8646C184.278 16.8646 185.336 17.124 186.237 17.6428C187.139 18.1616 187.836 18.9205 188.329 19.9194C188.829 20.9183 189.079 22.1379 189.079 23.5782V34.9379H184.964V24.2287C184.964 23.0284 184.661 22.0953 184.055 21.4294C183.456 20.7557 182.615 20.4189 181.531 20.4189C180.804 20.4189 180.152 20.5815 179.576 20.9067C179.007 21.2242 178.56 21.6849 178.234 22.2889C177.916 22.8929 177.757 23.6247 177.757 24.4842Z" fill="#F5F5F5"/>
<path d="M198.299 35.298C197.192 35.298 196.196 35.0967 195.309 34.694C194.43 34.2836 193.733 33.6796 193.217 32.882C192.709 32.0845 192.456 31.101 192.456 29.9318C192.456 28.9251 192.637 28.0927 193.001 27.4345C193.365 26.7763 193.861 26.2497 194.49 25.8548C195.119 25.4599 195.828 25.1618 196.616 24.9604C197.412 24.7514 198.234 24.6004 199.083 24.5074C200.106 24.399 200.936 24.3022 201.572 24.2171C202.209 24.1241 202.671 23.9848 202.959 23.7989C203.255 23.6053 203.403 23.3072 203.403 22.9045V22.8348C203.403 21.9598 203.149 21.2823 202.641 20.8022C202.133 20.3221 201.402 20.082 200.447 20.082C199.439 20.082 198.64 20.3066 198.048 20.7557C197.465 21.2048 197.071 21.7353 196.866 22.347L193.024 21.7895C193.327 20.7054 193.827 19.7994 194.524 19.0715C195.222 18.3359 196.074 17.7861 197.082 17.4221C198.09 17.0505 199.204 16.8646 200.424 16.8646C201.266 16.8646 202.103 16.9653 202.937 17.1666C203.77 17.3679 204.532 17.7009 205.221 18.1655C205.911 18.6224 206.464 19.2457 206.881 20.0356C207.306 20.8254 207.518 21.8127 207.518 22.9975V34.9379H203.562V32.4871H203.425C203.175 32.9827 202.823 33.4473 202.368 33.8809C201.921 34.3068 201.356 34.6514 200.674 34.9147C200 35.1702 199.208 35.298 198.299 35.298ZM199.367 32.2083C200.193 32.2083 200.909 32.0419 201.516 31.7089C202.122 31.3682 202.588 30.9191 202.914 30.3615C203.247 29.804 203.414 29.1961 203.414 28.5379V26.4356C203.285 26.544 203.065 26.6446 202.755 26.7376C202.452 26.8305 202.111 26.9118 201.732 26.9815C201.353 27.0512 200.978 27.1131 200.606 27.1673C200.235 27.2215 199.913 27.268 199.64 27.3067C199.026 27.3919 198.477 27.5313 197.992 27.7249C197.507 27.9185 197.124 28.1895 196.843 28.5379C196.563 28.8786 196.423 29.32 196.423 29.8621C196.423 30.6364 196.699 31.2211 197.253 31.616C197.806 32.0109 198.511 32.2083 199.367 32.2083Z" fill="#F5F5F5"/>
<path d="M219.272 35.2864C217.529 35.2864 216.032 34.8953 214.782 34.1132C213.539 33.3312 212.58 32.2509 211.906 30.8726C211.239 29.4865 210.905 27.8913 210.905 26.0871C210.905 24.2751 211.246 22.6761 211.928 21.29C212.611 19.8962 213.573 18.8121 214.816 18.0377C216.066 17.2557 217.544 16.8646 219.249 16.8646C220.666 16.8646 221.921 17.1318 223.012 17.6661C224.111 18.1926 224.986 18.9399 225.638 19.9078C226.29 20.868 226.661 21.9908 226.752 23.2762H222.819C222.66 22.4167 222.281 21.7004 221.682 21.1274C221.091 20.5466 220.299 20.2563 219.306 20.2563C218.465 20.2563 217.726 20.4886 217.089 20.9532C216.453 21.41 215.956 22.0682 215.6 22.9278C215.252 23.7873 215.077 24.8172 215.077 26.0174C215.077 27.2332 215.252 28.2785 215.6 29.1535C215.949 30.0208 216.438 30.6906 217.067 31.163C217.703 31.6276 218.45 31.8599 219.306 31.8599C219.912 31.8599 220.454 31.7437 220.932 31.5114C221.417 31.2714 221.822 30.9268 222.148 30.4777C222.474 30.0286 222.698 29.4826 222.819 28.8399H226.752C226.653 30.1021 226.29 31.2211 225.661 32.1967C225.032 33.1647 224.175 33.9235 223.092 34.4733C222.008 35.0154 220.735 35.2864 219.272 35.2864Z" fill="#F5F5F5"/>
<path d="M233.882 29.3394L233.871 24.2635H234.53L240.805 17.0969H245.614L237.895 25.878H237.043L233.882 29.3394ZM230.131 34.9379V11.1499H234.246V34.9379H230.131ZM241.09 34.9379L235.406 26.8189L238.179 23.857L246.012 34.9379H241.09Z" fill="#F5F5F5"/>
<path d="M248.356 34.9379V17.0969H252.472V34.9379H248.356ZM250.425 14.5648C249.774 14.5648 249.213 14.3441 248.743 13.9027C248.273 13.4536 248.038 12.9154 248.038 12.2882C248.038 11.6532 248.273 11.1151 248.743 10.6737C249.213 10.2246 249.774 10 250.425 10C251.085 10 251.645 10.2246 252.108 10.6737C252.578 11.1151 252.813 11.6532 252.813 12.2882C252.813 12.9154 252.578 13.4536 252.108 13.9027C251.645 14.3441 251.085 14.5648 250.425 14.5648Z" fill="#F5F5F5"/>
<path d="M260.818 24.4842V34.9379H256.703V17.0969H260.636V20.1285H260.841C261.243 19.1296 261.883 18.3359 262.762 17.7474C263.649 17.1589 264.744 16.8646 266.047 16.8646C267.252 16.8646 268.302 17.1279 269.196 17.6544C270.098 18.181 270.795 18.9437 271.288 19.9426C271.788 20.9416 272.034 22.1534 272.027 23.5782V34.9379H267.912V24.2287C267.912 23.0362 267.609 22.1031 267.002 21.4294C266.404 20.7557 265.574 20.4189 264.513 20.4189C263.793 20.4189 263.152 20.5815 262.592 20.9067C262.038 21.2242 261.603 21.6849 261.284 22.2889C260.974 22.8929 260.818 23.6247 260.818 24.4842Z" fill="#F5F5F5"/>
<path d="M283.804 42C282.326 42 281.057 41.7948 279.996 41.3844C278.935 40.9817 278.082 40.4397 277.438 39.7583C276.794 39.0768 276.347 38.3218 276.097 37.4933L279.802 36.5757C279.969 36.9241 280.212 37.2687 280.53 37.6094C280.848 37.9579 281.276 38.2444 281.814 38.469C282.36 38.7013 283.046 38.8174 283.872 38.8174C285.039 38.8174 286.005 38.527 286.771 37.9463C287.536 37.3733 287.919 36.4286 287.919 35.1122V31.7321H287.714C287.502 32.1658 287.191 32.611 286.782 33.0679C286.381 33.5247 285.846 33.908 285.179 34.2178C284.52 34.5275 283.69 34.6824 282.69 34.6824C281.348 34.6824 280.132 34.361 279.041 33.7183C277.957 33.0679 277.093 32.0999 276.449 30.8145C275.812 29.5214 275.494 27.903 275.494 25.9593C275.494 24.0002 275.812 22.347 276.449 20.9996C277.093 19.6445 277.961 18.6185 279.052 17.9216C280.143 17.2169 281.36 16.8646 282.701 16.8646C283.724 16.8646 284.565 17.0427 285.225 17.3989C285.892 17.7474 286.422 18.1694 286.816 18.665C287.21 19.1528 287.51 19.6136 287.714 20.0472H287.942V17.0969H292V35.2283C292 36.7538 291.644 38.016 290.931 39.0149C290.219 40.0138 289.245 40.761 288.01 41.2566C286.775 41.7522 285.373 42 283.804 42ZM283.838 31.3837C284.709 31.3837 285.452 31.1668 286.066 30.7332C286.68 30.2996 287.146 29.6762 287.464 28.8632C287.783 28.0501 287.942 27.0744 287.942 25.9361C287.942 24.8133 287.783 23.8299 287.464 22.9858C287.154 22.1418 286.691 21.4875 286.077 21.0229C285.471 20.5505 284.725 20.3143 283.838 20.3143C282.921 20.3143 282.156 20.5583 281.542 21.0461C280.928 21.5339 280.466 22.2038 280.155 23.0555C279.844 23.8996 279.689 24.8598 279.689 25.9361C279.689 27.0279 279.844 27.9843 280.155 28.8051C280.473 29.6181 280.939 30.2531 281.553 30.71C282.174 31.1591 282.936 31.3837 283.838 31.3837Z" fill="#F5F5F5"/>
<rect width="48" height="48" rx="8" fill="#F5F5F5"/>
<path d="M4 4H44V44H4V4Z" fill="#F5F5F5"/>
<path d="M27.9606 4.63675C28.2795 4.59232 28.9224 4.68233 29.2318 4.76588C30.638 5.14542 31.5092 5.77383 32.2649 6.99186C32.7805 6.97084 33.2922 6.96204 33.8011 7.05448C35.2259 7.31951 36.488 8.13363 37.313 9.31987C38.1156 10.4868 38.4715 11.9081 38.2073 13.3045C40.2907 14.1895 41.3434 16.1186 41.0897 18.3202C41.0488 18.6755 40.9993 18.9114 40.8806 19.2478C41.5314 19.8451 42.0249 20.3672 42.3746 21.2064C42.8506 22.3496 42.872 23.8219 42.3911 24.9683C42.6919 26.1721 42.8631 27.144 42.588 28.3982C42.3353 29.5491 41.6538 30.6834 40.7701 31.4654C40.4831 31.7192 40.072 31.9757 39.7438 32.1803C39.7468 32.443 39.8035 32.6762 39.8276 32.933C40.1344 36.1928 37.9503 39.3951 34.6209 39.9277C34.296 39.9796 33.9159 39.9819 33.589 40.0003C31.9957 44.0982 26.2181 44.6726 24.738 40.154C24.4781 39.3603 24.5133 38.2654 24.5136 37.4342L24.5147 35.0358L23.4564 35.0378L23.4604 41.666C22.9318 41.6644 22.4032 41.6657 21.8746 41.67L21.8785 43.3103L18.1186 43.3117C18.1567 42.8259 18.1418 42.1652 18.1445 41.667H15.0215L15.0163 39.9908L13.1425 39.9888L11.8475 39.9878L11.8497 38.3182L10.2649 38.3199C10.2533 37.7731 10.2517 37.2256 10.2602 36.6788L8.68459 36.6752L8.6834 35.0358L7.09886 35.0345L7.10506 30.0772C6.57604 30.0705 6.04699 30.0692 5.51794 30.0733C5.4894 28.2573 5.50603 26.3479 5.5156 24.5289L7.10799 24.525L7.10176 23.5404C6.58643 23.5257 6.03449 23.5365 5.51652 23.5376C5.50841 22.2253 5.50874 20.9129 5.51748 19.6006L7.1072 19.599C7.08312 18.5307 7.10034 17.3912 7.09889 16.3164L8.68182 16.3166L8.6833 13.032L10.2641 13.0282C10.2522 11.9348 10.2558 10.8103 10.2632 9.71662C10.7912 9.71491 11.3191 9.71757 11.847 9.72457L11.8439 8.0376C12.3728 8.03386 12.9017 8.03356 13.4305 8.03672L13.432 6.3998L15.6025 6.39902C15.61 6.93915 15.6044 7.49485 15.6046 8.03622L16.5611 8.0333C16.5214 7.63458 16.5554 6.82099 16.5678 6.39875C17.0807 6.38348 17.609 6.39146 18.1233 6.3931C18.115 5.84562 18.1152 5.29806 18.1237 4.75061L21.8739 4.75514L21.8786 6.41869C22.2499 6.37698 23.0431 6.39163 23.4557 6.37744L23.4592 11.9783L21.8736 11.9819L21.8774 13.6209C20.9289 13.6732 19.6915 13.6268 18.7083 13.6294L18.7115 14.6745L20.3022 14.674C20.2944 15.2199 20.2921 15.7658 20.2953 16.3117L21.2788 16.3143L21.2748 14.673L22.8662 14.6719L22.87 13.0287C23.4178 13.025 23.9657 13.024 24.5135 13.0259L24.5151 9.98411C24.5137 9.12808 24.4704 8.05672 24.6587 7.23806C24.7644 6.75626 24.9791 6.30483 25.2866 5.91816C25.9545 5.08174 26.9314 4.75064 27.9606 4.63675Z" fill="black"/>
<path d="M27.7494 5.29225C29.8755 5.02723 31.8335 6.57044 32.1891 8.62273C32.2409 8.92099 32.1739 9.72588 32.324 9.88893C32.4503 9.94989 32.7644 9.9647 32.7937 9.8265C32.928 9.19048 32.7007 8.16831 32.5361 7.57734C32.8904 7.57856 33.4548 7.62499 33.7933 7.69488C35.0629 7.95721 36.173 8.71711 36.8736 9.80338C37.4694 10.7221 37.8698 12.0494 37.6317 13.1412C37.091 12.9945 36.8449 13.0243 36.2894 13.0335C36.0532 12.2285 35.72 11.6101 34.998 11.141C34.8139 11.0099 34.4639 10.8882 34.323 11.1436C34.1677 11.411 34.4395 11.5866 34.6476 11.7034C35.1464 11.9712 35.4014 12.3674 35.5914 12.8873C36.0018 14.0117 35.4301 15.7385 34.0944 15.8951C33.8892 15.9191 33.6554 15.9152 33.4584 15.9793C33.3525 16.0138 33.3215 16.0721 33.2833 16.1654C33.4004 17.0064 35.0293 16.3097 35.4192 15.8977C36.4128 16.3813 37.0445 16.9399 37.4443 17.9967C37.7639 18.8288 37.7356 19.7538 37.3651 20.565C36.9554 21.4762 36.1957 22.1859 35.2566 22.5353C34.1023 22.9561 33.026 22.7669 31.9407 22.2658C31.8839 21.8337 31.8262 20.6828 31.3898 20.495C31.1803 20.4758 30.9883 20.6171 31.0421 20.8164C31.3139 21.8241 31.4693 22.3233 31.1289 23.3736C30.7637 24.5003 29.6554 25.7167 28.3408 25.2723C27.636 25.0341 27.3571 24.4538 27.1221 23.8002C26.9543 23.3145 26.4891 23.4911 26.5242 23.8013C26.7558 25.8463 29.0751 26.6535 30.5866 25.2887C31.1945 24.7397 31.813 23.7911 31.849 22.9521L31.8506 22.9036C32.9075 23.3018 33.9786 23.5334 35.1368 23.2145C37.919 22.4485 39.1355 19.2406 37.5522 16.8509C37.1035 16.1738 36.548 15.793 35.8249 15.3934C36.2119 14.8919 36.3188 14.2469 36.3646 13.6362C36.5411 13.6517 36.7304 13.6644 36.9046 13.6739C39.9282 13.8391 41.5195 17.4568 39.8735 19.8888C39.6749 20.1821 39.2708 20.7301 39.192 21.0377C38.9884 21.8334 39.2256 22.7045 38.5718 23.3757C38.3854 23.5672 38.3696 23.8379 38.617 23.9936C38.9162 24.0295 39.0501 23.7334 39.2022 23.5383C39.8144 22.7538 39.631 21.9646 39.8039 21.1161C39.8299 20.9888 40.4831 20.0576 40.6002 19.8307C42.0417 21.0686 42.4349 22.724 41.8969 24.5107C41.512 24.2507 41.1178 24.1123 40.6503 24.1834C39.8494 24.3053 39.3242 24.8837 39.1844 25.6637C39.123 26.0499 39.1062 26.4327 39.03 26.8176C38.8331 27.8091 38.0984 28.6974 37.1669 29.0944C36.7582 29.2685 36.2534 29.3255 35.8088 29.3911C35.694 29.1759 34.5988 27.1503 34.2795 28.2702C34.2346 28.427 34.7321 28.793 34.8782 28.9865C35.6353 29.9883 35.3615 31.7333 34.2448 32.377C33.9918 32.5241 33.4386 32.7097 33.4287 33.0243C33.6148 33.4506 34.199 33.1291 34.4659 32.9698C35.4997 32.3534 36.046 31.1826 35.8975 29.979C37.9127 29.8405 39.2883 28.7082 39.6934 26.6894C39.757 26.3709 39.7089 25.9513 39.7821 25.6602C39.8609 25.3608 40.0526 25.1032 40.3175 24.9412C40.5751 24.7835 40.8872 24.7391 41.1788 24.8185C41.4526 24.8953 41.6825 25.081 41.8141 25.3318C41.9484 25.5907 41.9616 25.824 42.0183 26.1013C42.5596 28.7452 40.8238 31.6765 38.0585 32.09C37.7616 32.1343 36.9175 32.1202 36.74 32.2069C36.6183 32.3458 36.5935 32.5215 36.6503 32.6844C36.9713 33.6069 36.712 34.6033 35.9895 35.2578C35.7953 35.4338 35.1454 35.7478 35.2632 36.0417C35.4914 36.6108 36.4411 35.7333 36.6246 35.4903C37.341 34.6571 37.4351 33.778 37.345 32.7527C38.0483 32.7406 38.4834 32.6752 39.1553 32.4552C39.2319 32.7836 39.2698 33.1199 39.2678 33.4571C39.2751 36.4814 36.9647 39.3468 33.7939 39.3662C34.3013 37.1015 33.6583 35.3189 31.8206 33.9649C31.7972 33.9478 31.908 33.0322 31.9051 32.9143C31.8919 32.3895 31.7909 31.9862 31.6019 31.4982C32.0258 31.2752 32.3158 31.022 32.6311 30.6424C32.8597 30.3957 33.1107 29.7696 32.5444 29.7796C32.3725 29.7826 32.1396 30.2989 32.0245 30.4332C31.5425 30.9905 30.8039 31.2585 30.0748 31.1409C29.8433 31.1021 29.6085 31.022 29.3726 31.0305C29.0848 31.0407 29.0495 31.4496 29.2769 31.5658C29.8483 31.8588 30.3923 31.8657 31.0101 31.7461C31.3842 32.689 31.4558 33.3626 30.9392 34.2867C30.5852 34.9195 29.9853 35.2946 29.2766 35.4289C28.8718 35.5058 28.7545 35.8453 29.1628 36.0325C29.3776 36.1314 29.7681 35.9606 29.9868 35.8785C30.5631 35.6624 31.2592 35.0834 31.5059 34.5156C32.6252 35.3652 33.3344 36.403 33.3694 37.8828C33.4545 41.4854 29.2608 44.402 26.3098 41.624C25.0547 40.442 25.1041 38.9777 25.1071 37.3701C25.3953 37.6788 25.538 37.8171 25.921 38.0397C25.9771 38.1067 26.6945 38.3534 26.6989 38.3744C27.2513 41.0506 30.7056 40.8237 31.0563 38.1846C30.897 37.5685 30.4602 37.7301 30.3843 38.309C30.2395 39.4145 28.9343 40.1172 28.0006 39.3839C27.4529 38.9537 27.3202 38.4828 27.227 37.8506C24.8362 37.2801 25.0998 35.9261 25.1112 33.9304L25.1072 25.8677L25.1068 23.3847C25.1066 22.2412 24.9743 20.889 26.1158 20.2227C27.5277 19.3985 29.0631 20.3966 29.2095 21.9266C29.2226 22.0641 29.2941 22.1945 29.4113 22.2678C29.645 22.3005 29.806 22.1068 29.7976 21.8869C29.746 20.5479 28.6664 19.3622 27.2963 19.3016C26.3356 19.2591 25.7906 19.6445 25.1174 20.257C25.0949 18.8675 25.1083 17.4458 25.1076 16.0545L24.5197 16.0565C24.4879 18.1231 24.5155 20.253 24.5154 22.3247L24.5135 34.4447L20.2958 34.4407L20.2908 28.4017L21.8755 28.3999L21.8756 27.8165C20.8392 27.7983 19.7617 27.8129 18.7221 27.8126C18.6761 26.2369 18.7126 24.4797 18.7089 22.8867L18.1259 22.8855C18.1357 23.9808 18.1345 25.0761 18.1222 26.1714L16.5422 26.1655C16.5333 26.7129 16.5323 27.2604 16.5392 27.8079L15.0111 27.8152L15.0153 34.4447L14.025 34.4411L14.0246 32.8062C13.3039 32.7961 12.5712 32.8007 11.8495 32.7984C11.8455 33.3475 11.8453 33.8962 11.8489 34.445L10.8591 34.4424L10.8565 32.799L10.2631 32.8003C10.2501 33.5448 10.2501 34.2893 10.2632 35.0342L11.846 35.0378L11.8488 36.0818L9.27661 36.0831L9.27591 31.7366C9.74915 31.756 10.3753 31.7389 10.8594 31.7383L10.8603 27.8095C10.1452 27.799 9.40143 27.8115 8.68425 27.8138L8.68191 29.4533L7.69252 29.45L7.69087 26.7585L9.27535 26.757L9.27476 24.5276L7.69054 24.5261L7.69025 23.5368C8.18479 23.5108 8.77507 23.5313 9.27572 23.5393L9.27598 18.613L10.2624 18.6149C10.2655 19.4457 10.2463 20.2871 10.2575 21.1179C10.2619 21.4456 10.31 21.5925 10.5419 21.8042C10.5852 21.8155 10.6287 21.8256 10.6726 21.8344C11.0667 21.9132 11.9408 21.9525 12.2799 21.7255C12.5939 21.2754 12.392 19.6664 12.4511 19.0594C12.5756 17.7792 11.814 17.9465 10.8594 17.9579L10.8607 15.2651L12.4676 15.2631C12.4085 14.3846 12.4467 12.8885 12.4428 11.9805L14.0257 11.9785L14.0256 10.3092C15.081 10.3224 16.1365 10.3216 17.1919 10.3067L17.1915 8.65297C17.6397 8.67734 18.2728 8.66309 18.7164 8.65215C18.7137 8.09852 18.7144 7.54489 18.7184 6.99127C19.2803 6.9932 19.7251 7.02525 20.2962 6.98453L20.2924 5.358C20.6197 5.36365 20.9471 5.36729 21.2745 5.36897C21.3031 6.41714 21.2817 7.59747 21.2773 8.64805C21.8009 8.67333 22.3373 8.66381 22.8624 8.6599L22.8646 9.71373C22.338 9.7048 21.8112 9.70506 21.2845 9.71452C21.2674 10.739 21.2201 12.0232 21.2767 13.0328L18.1244 13.0306C18.1206 14.101 18.0966 15.2518 18.1287 16.3154H13.4084C13.3693 18.019 13.4127 19.8807 13.4081 21.5989C13.6123 21.624 13.8194 21.6271 14.0252 21.6338L14.0252 16.9646C15.2925 16.9437 16.8667 16.917 18.1199 16.9679C18.1326 18.0375 18.1468 19.1684 18.1204 20.2338L20.294 20.2464C20.287 19.707 20.2917 19.1544 20.291 18.6139C20.6176 18.6094 20.9536 18.6137 21.2811 18.614L21.2818 20.2304C21.5039 20.2259 21.6552 20.2348 21.8775 20.2526L21.8752 18.6128L22.8638 18.6139L22.8649 21.2765C21.8044 21.2923 20.7437 21.2938 19.6831 21.281C19.2084 21.2791 18.6291 21.2633 18.1614 21.2873C18.1408 21.4772 18.1292 21.6748 18.1153 21.866L21.2795 21.8699C21.2747 22.4236 21.2749 22.9773 21.2801 23.531L22.8659 23.5412L22.8654 26.1683L21.8793 26.1681L21.8751 24.5255L21.274 24.5286C21.2745 25.2274 21.2995 26.0753 21.26 26.7598L22.8639 26.7587L22.8653 29.4507L21.2841 29.4537C21.2824 30.1964 21.2929 30.9849 21.2685 31.7235C21.6874 31.7238 22.4772 31.7547 22.863 31.7186L22.865 32.6677L23.4553 32.6683L23.4549 15.2661L25.0459 15.262C25.0367 14.538 25.0361 13.8139 25.044 13.0899C25.6098 13.0747 26.1925 13.0845 26.7597 13.0873L26.7598 10.8637L25.1208 10.8661C25.132 10.0638 25.0767 8.10824 25.2288 7.44506C25.3096 7.08614 25.4633 6.74746 25.6804 6.44989C26.2126 5.71704 26.8775 5.42693 27.7494 5.29225Z" fill="#F5F5F5"/>
<path d="M34.1908 24.7671C34.5012 24.7151 34.8901 24.7798 35.1949 24.8621C36.0724 25.099 36.7836 25.6561 37.2424 26.4345C37.2949 26.5235 37.3101 26.6076 37.2758 26.7081C37.2471 26.7904 37.1854 26.857 37.1052 26.8921C36.8172 27.0158 36.6744 26.6318 36.5326 26.4567C36.1987 26.0443 35.7709 25.7066 35.2695 25.5214C34.6252 25.2906 33.9147 25.3268 33.2975 25.6219C32.0598 26.2001 31.6966 27.3344 31.4832 28.5686C31.439 28.8236 31.1546 28.7057 30.9874 28.6542C30.2228 28.4184 29.7037 28.3833 28.946 28.6839C27.2386 29.4488 27.4594 31.0788 27.1385 31.2621C27.0817 31.2946 27.0197 31.2995 26.9576 31.2821C26.873 31.2578 26.7993 31.1708 26.7656 31.0926C26.6122 30.7366 26.8476 30.1441 26.9902 29.8091C27.3334 29.0217 27.9758 28.4016 28.7769 28.0845C29.4002 27.837 30.3346 27.7539 30.958 28.0218C31.2714 26.1923 32.3131 25.0144 34.1908 24.7671Z" fill="black"/>
<path d="M27.7939 7.12201C28.8758 7.08979 29.6166 7.86848 29.9313 8.82424C30.5453 10.6887 28.9388 11.8566 28.1502 13.265C27.3665 14.6647 27.8057 16.7985 29.2753 17.5751C29.6655 17.7813 29.9666 17.8401 29.6839 18.3366C29.3453 18.3954 28.9535 18.1274 28.6925 17.9345C27.8819 17.3473 27.3461 16.457 27.2085 15.4684C26.9473 13.644 27.7683 12.5719 28.8218 11.2489C29.317 10.627 29.4776 9.95806 29.3698 9.15829C29.2901 8.5666 28.8419 8.06391 28.2924 7.82253C28.1213 7.76719 27.9278 7.7977 27.7808 7.67163C27.5804 7.4998 27.634 7.30591 27.7939 7.12201Z" fill="black"/>
<path d="M32.2286 12.2419C32.4852 12.2202 32.6624 12.3499 32.6522 12.6148C32.4938 12.927 32.032 12.8877 31.6876 13.2309C31.1394 13.7769 30.9454 14.202 30.8867 14.938C30.7758 16.3255 31.5098 17.5784 32.8646 17.9999C33.6956 18.2337 34.4839 18.172 35.1081 18.8643C35.4139 19.2036 35.8539 20.3821 35.4607 20.7185C35.4003 20.7189 35.2087 20.7235 35.1698 20.6941C34.9029 20.4931 35.0279 19.9658 34.8432 19.5822C34.3454 18.5465 33.3663 18.9143 32.4104 18.5099C31.5365 18.1428 30.8491 17.4388 30.505 16.5587C30.1419 15.6493 30.1627 14.6324 30.5631 13.7385C30.9256 12.9272 31.43 12.553 32.2286 12.2419Z" fill="black"/>
<path d="M15.5698 11.3638C16.2259 11.3287 16.8249 11.2001 17.1905 11.8323L17.1929 13.6211L16.5395 13.6226C16.5459 13.0808 16.5391 12.5232 16.5383 11.9803L15.6074 11.9805L15.6083 14.1314L15.6084 14.6729L17.1922 14.6754L17.1913 15.2639C16.6538 15.262 16.0258 15.2983 15.4929 15.2532C15.2522 15.2329 15.1496 15.1167 15.0254 14.9353C14.9946 13.9225 15.026 12.8764 15.0251 11.8614C15.0248 11.5492 15.3064 11.4149 15.5698 11.3638Z" fill="black"/>
<path d="M10.8711 22.8918C11.5442 22.8739 12.0559 22.7295 12.4423 23.3706L12.4495 26.3609L11.8503 26.3701C11.8274 25.4282 11.8441 24.4268 11.844 23.4805C11.5216 23.5027 11.1845 23.5032 10.8605 23.509C10.8457 24.4492 10.8583 25.4197 10.8587 26.3622L10.2643 26.3662C10.2557 25.4619 10.2196 24.265 10.3029 23.3632C10.3103 23.2832 10.4292 23.1147 10.481 23.0401C10.6436 22.9546 10.6963 22.9413 10.8711 22.8918Z" fill="black"/>
<path d="M15.0166 23.0172C15.7409 23.0093 16.4652 23.011 17.1894 23.0222L17.1919 25.1161L15.0203 25.1168C15.0231 24.4169 15.0219 23.7171 15.0166 23.0172Z" fill="black"/>
<path d="M15.6084 23.5394L16.5541 23.536C16.5387 23.8648 16.5426 24.194 16.5431 24.5232L15.61 24.5242L15.6084 23.5394Z" fill="#F5F5F5"/>
<path d="M15.6212 17.9674C15.9922 17.9523 16.3636 17.9527 16.7346 17.9687C16.9998 18.1342 17.0366 18.1982 17.1898 18.4668C17.1986 19.0757 17.1895 19.7079 17.1891 20.3187L16.5543 20.3228C16.5717 19.7901 16.558 19.1646 16.5585 18.6261C16.2707 18.5997 15.9035 18.6113 15.609 18.6124L15.6048 20.3186L15.0201 20.322C15.0302 19.7 14.9909 18.9393 15.0425 18.3363C15.221 18.0463 15.2989 18.0193 15.6212 17.9674Z" fill="black"/>
<path d="M11.8503 27.8123L12.4532 27.8112C12.4228 29.0904 12.441 30.4631 12.4524 31.7448C12.2533 31.7501 12.0464 31.7484 11.8466 31.7494C11.8192 30.4883 11.8336 29.0784 11.8503 27.8123Z" fill="black"/>
<path d="M13.4142 27.8121L14.0247 27.8136L14.025 31.7448C13.8306 31.7501 13.6244 31.7468 13.429 31.7475C13.3644 30.624 13.4058 28.9769 13.4142 27.8121Z" fill="black"/>
<path d="M18.1379 9.71396C18.8435 9.69987 19.5824 9.71231 20.2906 9.71484C20.2919 10.0257 20.3261 11.8548 20.2508 11.9787L19.6957 11.9746L19.6951 10.3226C19.1679 10.3275 18.6405 10.3252 18.1133 10.3156C18.113 10.1001 18.1219 9.92933 18.1379 9.71396Z" fill="black"/>
<path d="M13.4159 23.0175L14.0226 23.0139L14.0248 26.7573L13.4288 26.7587C13.4113 25.6587 13.3618 24.0853 13.4159 23.0175Z" fill="black"/>
<path d="M19.7033 22.89L20.2902 22.888L20.2939 26.7572C20.0979 26.7613 19.8942 26.7589 19.6975 26.7592L19.7033 22.89Z" fill="black"/>
<path d="M13.4026 13.0312L14.0225 13.0293L14.025 15.2642L13.4005 15.2621L13.4026 13.0312Z" fill="black"/>
<path d="M17.1912 28.4027L18.1472 28.4C18.1223 28.9086 18.131 29.5502 18.1253 30.0685C18.6404 30.0499 19.1725 30.0779 19.6975 30.056L19.6984 31.1514C18.666 31.136 17.5784 31.1494 16.5436 31.1547C16.5059 32.4089 16.5364 33.7685 16.5307 35.0335L17.1927 35.0309L17.192 33.3931L18.1343 33.3928L18.1162 35.0342L18.7356 35.0319C18.6729 34.088 18.7119 32.7172 18.7101 31.7445C19.0524 31.7435 19.3593 31.7432 19.7007 31.7189L19.6983 35.0351L21.2705 35.0378C21.29 35.5714 21.2788 36.1383 21.2767 36.6745L22.8657 36.6782L22.8648 37.7258L21.2868 37.7261C21.2793 39.3281 21.3174 41.0867 21.2691 42.6755C21.2106 42.7255 20.4203 42.6989 20.2936 42.6972L20.2892 41.0122L17.1928 41.0095L17.1917 36.087L16.5357 36.0877V39.3727L15.6057 39.3721L15.6066 36.087C14.8808 36.0795 14.1463 36.086 13.4198 36.0877C13.4274 36.6315 13.4154 37.1793 13.4234 37.7261L12.4674 37.7245C12.4103 36.9514 12.4433 35.8325 12.4441 35.0345L15.6074 35.0305L15.5922 30.0743C16.1254 30.0643 16.6587 30.0607 17.192 30.0636L17.1912 28.4027Z" fill="#F5F5F5"/>
<path d="M18.1395 36.0857H20.2918L20.2953 39.9612C19.5754 39.9888 18.8609 39.9855 18.1406 39.9888L18.1395 36.0857Z" fill="black"/>
<path d="M18.709 36.6785L19.6968 36.6775C19.6986 36.9964 19.7112 37.4161 19.688 37.7245L18.724 37.7209L18.709 36.6785Z" fill="#F5F5F5"/>
<path d="M18.7081 38.3215L19.6946 38.3195L19.6974 39.3685H18.7424C18.723 39.0197 18.7116 38.6706 18.7081 38.3215Z" fill="#F5F5F5"/>
<path d="M10.8599 18.6095L11.8409 18.6157L11.8452 21.3021C11.576 21.2814 11.1426 21.2894 10.8609 21.2859L10.8599 18.6095Z" fill="#F5F5F5"/>
<path d="M18.7087 16.9698C19.0376 16.964 19.3665 16.9609 19.6955 16.9604L19.697 19.5994L18.7138 19.5961L18.7087 16.9698Z" fill="#F5F5F5"/>
<path d="M25.1169 11.4537C25.4537 11.4439 25.8239 11.4535 26.1634 11.4561L26.1647 12.5094L25.1139 12.5074L25.1169 11.4537Z" fill="#F5F5F5"/>
<path d="M6.10922 21.8382C6.43065 21.8329 6.77721 21.8534 7.10025 21.8662C7.11121 22.1647 7.12189 22.6248 7.09514 22.9166C6.75643 22.9399 6.44829 22.9402 6.10912 22.9413C6.10674 22.5737 6.10678 22.2059 6.10922 21.8382Z" fill="#F5F5F5"/>
<path d="M7.69127 21.8384C8.01811 21.8315 8.35706 21.8353 8.68502 21.835C8.68521 22.11 8.7027 22.6929 8.67007 22.9385L7.69101 22.9257L7.69127 21.8384Z" fill="#F5F5F5"/>
<path d="M6.10628 25.1106L7.12018 25.1153L7.10897 26.1652C6.80347 26.177 6.41739 26.1658 6.10559 26.1657L6.10628 25.1106Z" fill="#F5F5F5"/>
<path d="M21.8757 30.0809L22.8648 30.0731C22.8641 30.397 22.8825 30.8394 22.8541 31.1494C22.529 31.1521 22.2038 31.1504 21.8787 31.1448L21.8757 30.0809Z" fill="#F5F5F5"/>
<path d="M6.10535 26.7551L7.12492 26.7619C7.10958 27.1143 7.10998 27.4558 7.10968 27.8084C6.83008 27.8273 6.39692 27.8132 6.10601 27.8117L6.10535 26.7551Z" fill="#F5F5F5"/>
<path d="M7.6929 30.0883L8.68338 30.071C8.68414 30.3665 8.69862 30.8759 8.66992 31.153C8.35301 31.1468 8.00678 31.1317 7.6925 31.1514L7.6929 30.0883Z" fill="#F5F5F5"/>
<path d="M14.0243 38.3189L15.0166 38.3199L15.0165 39.3731L14.026 39.3741L14.0243 38.3189Z" fill="#F5F5F5"/>
<path d="M7.69055 25.1141L8.68149 25.1143L8.68053 26.1712L7.6921 26.1665L7.69055 25.1141Z" fill="#F5F5F5"/>
<path d="M6.10391 28.4017C6.43863 28.3999 6.77705 28.4047 7.1121 28.407L7.10495 29.4545L6.10612 29.4496L6.10391 28.4017Z" fill="#F5F5F5"/>
<path d="M13.176 8.64683C13.2633 8.64125 13.2954 8.63209 13.3765 8.66736C13.4784 8.85915 13.4304 9.45025 13.4323 9.71695L12.8126 9.71626C12.6808 9.71866 12.6196 9.71695 12.489 9.70059C12.4113 9.60962 12.4497 8.83636 12.4528 8.6621L13.176 8.64683Z" fill="#F5F5F5"/>
<path d="M21.8752 21.8662L22.8644 21.8778C22.8697 22.2251 22.8688 22.5724 22.8619 22.9197C22.5376 22.9212 22.2016 22.9329 21.8763 22.9399L21.8752 21.8662Z" fill="#F5F5F5"/>
<path d="M7.69102 33.3928L8.68252 33.3941L8.68232 34.4434L7.69092 34.4404L7.69102 33.3928Z" fill="#F5F5F5"/>
<path d="M21.8764 10.3085L22.8631 10.3088L22.8661 11.3586L21.8782 11.3626L21.8764 10.3085Z" fill="#F5F5F5"/>
<path d="M14.0244 36.6778L15.0134 36.6772L15.0163 37.7258L14.0258 37.7245L14.0244 36.6778Z" fill="#F5F5F5"/>
<path d="M14.0455 8.64434C14.26 8.667 14.7769 8.65875 15.0138 8.66161L15.0146 9.71379L14.0256 9.70736C14.0227 9.4782 14.0039 8.83856 14.0455 8.64434Z" fill="#F5F5F5"/>
<path d="M23.4575 13.6262L24.4464 13.6232L24.4486 14.669L23.4596 14.6732L23.4575 13.6262Z" fill="#F5F5F5"/>
<path d="M9.27588 30.0839L10.2566 30.08L10.2595 31.153C9.94651 31.1438 9.59183 31.1521 9.27548 31.1517L9.27588 30.0839Z" fill="#F5F5F5"/>
<path d="M21.8764 35.0361L22.8643 35.0365L22.8651 36.0814L21.8797 36.0844L21.8764 35.0361Z" fill="#F5F5F5"/>
<path d="M9.2771 15.2657L10.2611 15.2685L10.2654 16.3146L9.27673 16.3132L9.2771 15.2657Z" fill="#F5F5F5"/>
<path d="M9.27573 13.6233L10.2614 13.6322L10.2642 14.6748L9.27665 14.6732L9.27573 13.6233Z" fill="#F5F5F5"/>
<path d="M21.8778 38.3212L22.8632 38.3195L22.8656 39.3678L21.8782 39.3704C21.8737 39.023 21.8773 38.6693 21.8778 38.3212Z" fill="#F5F5F5"/>
<path d="M6.11897 20.2374C6.47038 20.2337 6.74906 20.2366 7.09942 20.2586L7.09849 21.2794C6.77281 21.2858 6.43746 21.2824 6.11082 21.2828C6.10719 20.9462 6.09439 20.5692 6.11897 20.2374Z" fill="#F5F5F5"/>
<path d="M7.69333 31.7304L8.68394 31.7153L8.68094 32.7997C8.3918 32.7704 7.99051 32.7695 7.69089 32.7613L7.69333 31.7304Z" fill="#F5F5F5"/>
<path d="M9.27693 28.403L10.2622 28.4026L10.2447 29.454L9.27594 29.4516L9.27693 28.403Z" fill="#F5F5F5"/>
<path d="M18.7079 28.4045L19.6998 28.4026L19.699 29.4557C19.3764 29.4494 19.0397 29.4533 18.7159 29.4523C18.7201 29.1105 18.7108 28.748 18.7079 28.4045Z" fill="#F5F5F5"/>
<path d="M21.874 6.99054C22.2002 6.98539 22.5374 6.98989 22.8645 6.99012L22.8647 8.03754L21.8784 8.03573L21.874 6.99054Z" fill="#F5F5F5"/>
<path d="M10.8599 36.6775L11.8446 36.6778L11.8464 37.7264L10.8721 37.7232C10.856 37.3833 10.8608 37.0194 10.8599 36.6775Z" fill="#F5F5F5"/>
<path d="M21.8768 15.2673C22.2002 15.2605 22.5412 15.2662 22.8662 15.2671L22.8657 16.3146L21.8777 16.3123L21.8768 15.2673Z" fill="#F5F5F5"/>
<path d="M18.71 15.2675C19.0339 15.2619 19.3702 15.2666 19.6952 15.267L19.699 16.3152L18.7103 16.3126L18.71 15.2675Z" fill="#F5F5F5"/>
<path d="M12.4439 33.3934L13.4291 33.3938L13.4293 34.444L12.449 34.4417C12.4411 34.0975 12.445 33.7386 12.4439 33.3934Z" fill="#F5F5F5"/>
<path d="M10.8604 10.3132L11.8434 10.3105C11.8315 10.6573 11.8412 11.0158 11.8456 11.3638C11.5303 11.3552 11.1771 11.3627 10.8587 11.3624C10.8569 11.0126 10.8575 10.6629 10.8604 10.3132Z" fill="#F5F5F5"/>
<path d="M14.0244 6.98979L15.0123 6.99097L15.0138 8.03951C14.6908 8.03064 14.3504 8.03478 14.026 8.03435L14.0244 6.98979Z" fill="#F5F5F5"/>
<path d="M10.859 13.6242L11.8422 13.628C11.8355 13.9776 11.8367 14.3273 11.8459 14.6767L10.8587 14.6747L10.859 13.6242Z" fill="#F5F5F5"/>
<path d="M10.8572 11.9816L11.8419 11.98C11.8263 12.3374 11.8388 12.6751 11.8491 13.0325L10.8573 13.0253L10.8572 11.9816Z" fill="#F5F5F5"/>
<path d="M7.69104 20.2507C8.02715 20.2422 8.34802 20.249 8.68409 20.2559L8.68297 21.2977C8.45648 21.2768 7.91918 21.2802 7.69266 21.2948L7.69104 20.2507Z" fill="#F5F5F5"/>
<path d="M12.4449 38.3186L13.4314 38.3192C13.4186 38.6755 13.4219 39.021 13.4245 39.3773L12.4722 39.3793C12.4391 39.0227 12.445 38.6765 12.4449 38.3186Z" fill="#F5F5F5"/>
<path d="M12.4496 10.311C12.7434 10.3215 13.124 10.3065 13.4239 10.3028C13.3941 10.6219 13.4223 11.0583 13.4347 11.3883C13.1373 11.3509 12.7499 11.3614 12.4438 11.3606L12.4496 10.311Z" fill="#F5F5F5"/>
<path d="M18.7094 5.3487C19.0397 5.34217 19.3597 5.37465 19.694 5.36752L19.6976 6.39074L18.7102 6.39662L18.7094 5.3487Z" fill="#F5F5F5"/>
<path d="M21.8752 39.9915C22.1873 39.9793 22.5475 39.9878 22.8632 39.9892L22.8649 41.0105L21.8782 41.0108L21.8752 39.9915Z" fill="#F5F5F5"/>
<path d="M18.7062 41.6699C19.0342 41.6657 19.3694 41.6693 19.698 41.6693L19.6967 42.7097C19.3733 42.7067 19.05 42.6995 18.7269 42.688C18.7042 42.3809 18.7095 41.9849 18.7062 41.6699Z" fill="#F5F5F5"/>
<path d="M7.69232 16.9607L8.68042 16.9719L8.68434 17.9607L7.69116 17.9574L7.69232 16.9607Z" fill="#F5F5F5"/>
<path d="M21.8741 16.9641C22.2056 16.9525 22.533 16.9613 22.8645 16.9672L22.866 17.9548L21.8776 17.9599L21.8741 16.9641Z" fill="#F5F5F5"/>
<path d="M17.1879 26.7582L18.1447 26.757C18.1151 27.0968 18.1278 27.456 18.1332 27.7979C18.0303 27.8285 17.3369 27.8134 17.1915 27.8123L17.1879 26.7582Z" fill="#F5F5F5"/>
<path d="M7.69083 18.6114L8.68081 18.614L8.68269 19.6019L7.69205 19.5965L7.69083 18.6114Z" fill="#F5F5F5"/>
<path d="M17.1809 31.7475L18.1343 31.7425C18.1128 32.0233 18.1255 32.4992 18.1243 32.7947L17.1908 32.7924L17.1809 31.7475Z" fill="#F5F5F5"/>
<path d="M15.5843 28.4021C15.9054 28.4001 16.2264 28.4021 16.5474 28.4081C16.5241 28.7379 16.5356 29.1196 16.5382 29.4548L15.6065 29.4519C15.605 29.0947 15.6035 28.7589 15.5843 28.4021Z" fill="#F5F5F5"/>
<path d="M9.28422 16.9546C9.60287 16.9717 9.93958 16.9689 10.2599 16.9717L10.2685 17.9579L9.27739 17.959C9.27432 17.6295 9.26403 17.2823 9.28422 16.9546Z" fill="#F5F5F5"/>
<path d="M17.1913 6.98929L18.1239 6.98998C18.1237 7.34703 18.1204 7.68236 18.1472 8.03862C17.8463 8.02775 17.4962 8.03517 17.1914 8.03435L17.1913 6.98929Z" fill="#F5F5F5"/>
<path d="M20.2904 16.9646C20.6225 16.9535 20.9455 16.9634 21.2775 16.9709L21.2779 17.9546C20.9537 17.959 20.6223 17.956 20.2974 17.9566L20.2904 16.9646Z" fill="#F5F5F5"/>
<path d="M15.6071 8.65392C15.8854 8.66877 16.2475 8.66246 16.5321 8.66529C16.5325 9.01192 16.535 9.35859 16.5395 9.70522L15.6076 9.72039L15.6071 8.65392Z" fill="#F5F5F5"/>
<path d="M15.6049 39.9915L16.5568 39.9908C16.5566 40.3261 16.5461 40.6709 16.5398 41.0069C16.2616 41.02 15.8919 41.0095 15.6066 41.0095L15.6049 39.9915Z" fill="#F5F5F5"/>
<path d="M19.5692 8.00956V9.15599H19.3606V8.21164H19.3539L19.0845 8.38293V8.1926L19.3707 8.00956H19.5692Z" fill="black"/>
<path d="M20.4342 9.17783C20.3416 9.17783 20.2621 9.1545 20.1957 9.10785C20.1298 9.06083 20.079 8.9931 20.0434 8.90465C20.0081 8.81583 19.9905 8.70891 19.9905 8.58389C19.9909 8.45888 20.0087 8.35252 20.0439 8.26482C20.0795 8.17674 20.1303 8.10957 20.1963 8.06329C20.2627 8.01702 20.3419 7.99388 20.4342 7.99388C20.5264 7.99388 20.6057 8.01702 20.672 8.06329C20.7384 8.10957 20.7891 8.17674 20.8244 8.26482C20.86 8.35289 20.8778 8.45925 20.8778 8.58389C20.8778 8.70929 20.86 8.81639 20.8244 8.90521C20.7891 8.99366 20.7384 9.0612 20.672 9.10785C20.606 9.1545 20.5267 9.17783 20.4342 9.17783ZM20.4342 9.00261C20.5061 9.00261 20.5629 8.96735 20.6045 8.89681C20.6465 8.82591 20.6675 8.7216 20.6675 8.58389C20.6675 8.49284 20.6579 8.41633 20.6388 8.35438C20.6197 8.29243 20.5927 8.24578 20.5579 8.21444C20.523 8.18272 20.4818 8.16685 20.4342 8.16685C20.3626 8.16685 20.306 8.20231 20.2643 8.27321C20.2227 8.34375 20.2017 8.44731 20.2014 8.58389C20.201 8.67533 20.2102 8.7522 20.2289 8.81453C20.248 8.87685 20.275 8.92387 20.3099 8.95559C20.3448 8.98694 20.3862 9.00261 20.4342 9.00261Z" fill="black"/>
<path d="M20.8887 33.0999V34.2463H20.6801V33.302H20.6734L20.404 33.4732V33.2829L20.6902 33.0999H20.8887Z" fill="black"/>
<path d="M21.7536 34.2681C21.6611 34.2681 21.5816 34.2448 21.5152 34.1982C21.4493 34.1511 21.3985 34.0834 21.3629 33.995C21.3276 33.9061 21.31 33.7992 21.31 33.6742C21.3104 33.5492 21.3282 33.4428 21.3634 33.3551C21.399 33.2671 21.4498 33.1999 21.5158 33.1536C21.5822 33.1073 21.6614 33.0842 21.7536 33.0842C21.8459 33.0842 21.9251 33.1073 21.9915 33.1536C22.0578 33.1999 22.1086 33.2671 22.1439 33.3551C22.1795 33.4432 22.1973 33.5496 22.1973 33.6742C22.1973 33.7996 22.1795 33.9067 22.1439 33.9955C22.1086 34.084 22.0578 34.1515 21.9915 34.1982C21.9255 34.2448 21.8462 34.2681 21.7536 34.2681ZM21.7536 34.0929C21.8256 34.0929 21.8824 34.0577 21.924 33.9871C21.966 33.9162 21.987 33.8119 21.987 33.6742C21.987 33.5831 21.9774 33.5066 21.9583 33.4447C21.9392 33.3827 21.9122 33.3361 21.8774 33.3047C21.8425 33.273 21.8013 33.2572 21.7536 33.2572C21.6821 33.2572 21.6254 33.2926 21.5838 33.3635C21.5422 33.4341 21.5212 33.5376 21.5209 33.6742C21.5205 33.7656 21.5297 33.8425 21.5484 33.9048C21.5675 33.9672 21.5945 34.0142 21.6294 34.0459C21.6642 34.0773 21.7057 34.0929 21.7536 34.0929Z" fill="black"/>
<path d="M23.0133 33.0999V34.2463H22.8047V33.302H22.798L22.5286 33.4732V33.2829L22.8148 33.0999H23.0133Z" fill="black"/>
<path d="M23.8782 34.2681C23.7856 34.2681 23.7062 34.2448 23.6398 34.1982C23.5739 34.1511 23.5231 34.0834 23.4875 33.995C23.4522 33.9061 23.4346 33.7992 23.4346 33.6742C23.435 33.5492 23.4528 33.4428 23.488 33.3551C23.5236 33.2671 23.5744 33.1999 23.6404 33.1536C23.7067 33.1073 23.786 33.0842 23.8782 33.0842C23.9705 33.0842 24.0497 33.1073 24.1161 33.1536C24.1824 33.1999 24.2332 33.2671 24.2685 33.3551C24.3041 33.4432 24.3219 33.5496 24.3219 33.6742C24.3219 33.7996 24.3041 33.9067 24.2685 33.9955C24.2332 34.084 24.1824 34.1515 24.1161 34.1982C24.0501 34.2448 23.9708 34.2681 23.8782 34.2681ZM23.8782 34.0929C23.9502 34.0929 24.007 34.0577 24.0486 33.9871C24.0906 33.9162 24.1116 33.8119 24.1116 33.6742C24.1116 33.5831 24.102 33.5066 24.0829 33.4447C24.0638 33.3827 24.0368 33.3361 24.0019 33.3047C23.9671 33.273 23.9258 33.2572 23.8782 33.2572C23.8066 33.2572 23.75 33.2926 23.7084 33.3635C23.6668 33.4341 23.6458 33.5376 23.6455 33.6742C23.6451 33.7656 23.6543 33.8425 23.673 33.9048C23.6921 33.9672 23.7191 34.0142 23.754 34.0459C23.7888 34.0773 23.8303 34.0929 23.8782 34.0929Z" fill="black"/>
<path d="M14.8856 27.5686C14.793 27.5686 14.7135 27.5453 14.6472 27.4987C14.5812 27.4516 14.5304 27.3839 14.4948 27.2955C14.4596 27.2066 14.4419 27.0997 14.4419 26.9747C14.4423 26.8497 14.4601 26.7433 14.4954 26.6556C14.531 26.5676 14.5818 26.5004 14.6477 26.4541C14.7141 26.4078 14.7934 26.3847 14.8856 26.3847C14.9778 26.3847 15.0571 26.4078 15.1234 26.4541C15.1898 26.5004 15.2406 26.5676 15.2758 26.6556C15.3114 26.7437 15.3292 26.8501 15.3292 26.9747C15.3292 27.1001 15.3114 27.2072 15.2758 27.296C15.2406 27.3845 15.1898 27.452 15.1234 27.4987C15.0575 27.5453 14.9782 27.5686 14.8856 27.5686ZM14.8856 27.3934C14.9576 27.3934 15.0143 27.3582 15.056 27.2876C15.0979 27.2167 15.1189 27.1124 15.1189 26.9747C15.1189 26.8836 15.1094 26.8071 15.0903 26.7452C15.0711 26.6832 15.0441 26.6366 15.0093 26.6052C14.9744 26.5735 14.9332 26.5577 14.8856 26.5577C14.814 26.5577 14.7574 26.5931 14.7158 26.664C14.6742 26.7346 14.6532 26.8381 14.6528 26.9747C14.6524 27.0661 14.6616 27.143 14.6803 27.2053C14.6995 27.2677 14.7265 27.3147 14.7613 27.3464C14.7962 27.3777 14.8376 27.3934 14.8856 27.3934Z" fill="black"/>
<path d="M16.1452 26.4004V27.5468H15.9366V26.6024H15.9299L15.6606 26.7737V26.5834L15.9468 26.4004H16.1452Z" fill="black"/>
<path d="M11.6523 16.0227V17.1691H11.4437V16.2248H11.4369L11.1676 16.3961V16.2057L11.4538 16.0227H11.6523Z" fill="black"/>
<path d="M12.5172 17.191C12.4246 17.191 12.3451 17.1676 12.2788 17.121C12.2128 17.074 12.162 17.0062 12.1264 16.9178C12.0912 16.829 12.0736 16.7221 12.0736 16.597C12.0739 16.472 12.0917 16.3657 12.127 16.278C12.1626 16.1899 12.2134 16.1227 12.2793 16.0764C12.3457 16.0302 12.425 16.007 12.5172 16.007C12.6094 16.007 12.6887 16.0302 12.755 16.0764C12.8214 16.1227 12.8722 16.1899 12.9074 16.278C12.943 16.366 12.9608 16.4724 12.9608 16.597C12.9608 16.7224 12.943 16.8295 12.9074 16.9183C12.8722 17.0068 12.8214 17.0743 12.755 17.121C12.6891 17.1676 12.6098 17.191 12.5172 17.191ZM12.5172 17.0158C12.5892 17.0158 12.646 16.9805 12.6876 16.91C12.7296 16.839 12.7505 16.7347 12.7505 16.597C12.7505 16.506 12.741 16.4295 12.7219 16.3675C12.7027 16.3056 12.6758 16.2589 12.6409 16.2276C12.606 16.1959 12.5648 16.18 12.5172 16.18C12.4456 16.18 12.389 16.2154 12.3474 16.2864C12.3058 16.3569 12.2848 16.4604 12.2844 16.597C12.284 16.6885 12.2932 16.7653 12.312 16.8277C12.3311 16.89 12.3581 16.937 12.3929 16.9687C12.4278 17.0001 12.4692 17.0158 12.5172 17.0158Z" fill="black"/>
<path d="M18.0524 12.3305C17.9598 12.3305 17.8803 12.3072 17.814 12.2606C17.748 12.2135 17.6972 12.1458 17.6616 12.0574C17.6263 11.9685 17.6087 11.8616 17.6087 11.7366C17.6091 11.6116 17.6269 11.5052 17.6621 11.4175C17.6978 11.3295 17.7485 11.2623 17.8145 11.216C17.8809 11.1697 17.9602 11.1466 18.0524 11.1466C18.1446 11.1466 18.2239 11.1697 18.2902 11.216C18.3566 11.2623 18.4074 11.3295 18.4426 11.4175C18.4782 11.5056 18.496 11.612 18.496 11.7366C18.496 11.862 18.4782 11.9691 18.4426 12.0579C18.4074 12.1464 18.3566 12.2139 18.2902 12.2606C18.2242 12.3072 18.145 12.3305 18.0524 12.3305ZM18.0524 12.1553C18.1243 12.1553 18.1811 12.1201 18.2227 12.0495C18.2647 11.9786 18.2857 11.8743 18.2857 11.7366C18.2857 11.6455 18.2762 11.569 18.257 11.5071C18.2379 11.4451 18.2109 11.3985 18.1761 11.3671C18.1412 11.3354 18.1 11.3196 18.0524 11.3196C17.9808 11.3196 17.9242 11.355 17.8826 11.4259C17.8409 11.4965 17.82 11.6 17.8196 11.7366C17.8192 11.828 17.8284 11.9049 17.8471 11.9672C17.8663 12.0296 17.8932 12.0766 17.9281 12.1083C17.963 12.1396 18.0044 12.1553 18.0524 12.1553Z" fill="black"/>
<path d="M19.312 11.1623V12.3087H19.1034V11.3643H19.0967L18.8273 11.5356V11.3453L19.1135 11.1623H19.312Z" fill="black"/>
<path d="M9.80497 26.5317V27.6782H9.59636V26.7338H9.58962L9.32028 26.9051V26.7148L9.60648 26.5317H9.80497Z" fill="black"/>
<path d="M10.6699 27.7C10.5773 27.7 10.4978 27.6767 10.4315 27.63C10.3655 27.583 10.3147 27.5153 10.2791 27.4268C10.2439 27.338 10.2263 27.2311 10.2263 27.1061C10.2266 26.981 10.2444 26.8747 10.2797 26.787C10.3153 26.6989 10.3661 26.6317 10.4321 26.5855C10.4984 26.5392 10.5777 26.5161 10.6699 26.5161C10.7621 26.5161 10.8414 26.5392 10.9078 26.5855C10.9741 26.6317 11.0249 26.6989 11.0601 26.787C11.0957 26.8751 11.1135 26.9814 11.1135 27.1061C11.1135 27.2315 11.0957 27.3386 11.0601 27.4274C11.0249 27.5158 10.9741 27.5834 10.9078 27.63C10.8418 27.6767 10.7625 27.7 10.6699 27.7ZM10.6699 27.5248C10.7419 27.5248 10.7987 27.4895 10.8403 27.419C10.8823 27.3481 10.9033 27.2438 10.9033 27.1061C10.9033 27.015 10.8937 26.9385 10.8746 26.8766C10.8555 26.8146 10.8285 26.768 10.7936 26.7366C10.7587 26.7049 10.7175 26.689 10.6699 26.689C10.5983 26.689 10.5417 26.7245 10.5001 26.7954C10.4585 26.8659 10.4375 26.9695 10.4371 27.1061C10.4367 27.1975 10.4459 27.2744 10.4647 27.3367C10.4838 27.399 10.5108 27.446 10.5456 27.4778C10.5805 27.5091 10.6219 27.5248 10.6699 27.5248Z" fill="black"/>
<path d="M11.9296 26.5317V27.6782H11.721V26.7338H11.7142L11.4449 26.9051V26.7148L11.7311 26.5317H11.9296Z" fill="black"/>
<path d="M12.7945 27.7C12.7019 27.7 12.6224 27.6767 12.5561 27.63C12.4901 27.583 12.4393 27.5153 12.4037 27.4268C12.3685 27.338 12.3509 27.2311 12.3509 27.1061C12.3512 26.981 12.369 26.8747 12.4043 26.787C12.4399 26.6989 12.4907 26.6317 12.5566 26.5855C12.623 26.5392 12.7023 26.5161 12.7945 26.5161C12.8867 26.5161 12.966 26.5392 13.0323 26.5855C13.0987 26.6317 13.1495 26.6989 13.1847 26.787C13.2203 26.8751 13.2381 26.9814 13.2381 27.1061C13.2381 27.2315 13.2203 27.3386 13.1847 27.4274C13.1495 27.5158 13.0987 27.5834 13.0323 27.63C12.9664 27.6767 12.8871 27.7 12.7945 27.7ZM12.7945 27.5248C12.8665 27.5248 12.9233 27.4895 12.9649 27.419C13.0069 27.3481 13.0278 27.2438 13.0278 27.1061C13.0278 27.015 13.0183 26.9385 12.9992 26.8766C12.98 26.8146 12.9531 26.768 12.9182 26.7366C12.8833 26.7049 12.8421 26.689 12.7945 26.689C12.7229 26.689 12.6663 26.7245 12.6247 26.7954C12.5831 26.8659 12.5621 26.9695 12.5617 27.1061C12.5613 27.1975 12.5705 27.2744 12.5893 27.3367C12.6084 27.399 12.6354 27.446 12.6702 27.4778C12.7051 27.5091 12.7465 27.5248 12.7945 27.5248Z" fill="black"/>
<path d="M14.4897 22.9709C14.3971 22.9709 14.3177 22.9476 14.2513 22.901C14.1854 22.8539 14.1346 22.7862 14.0989 22.6978C14.0637 22.6089 14.0461 22.502 14.0461 22.377C14.0465 22.252 14.0643 22.1456 14.0995 22.0579C14.1351 21.9698 14.1859 21.9027 14.2519 21.8564C14.3182 21.8101 14.3975 21.787 14.4897 21.787C14.5819 21.787 14.6612 21.8101 14.7276 21.8564C14.7939 21.9027 14.8447 21.9698 14.88 22.0579C14.9156 22.146 14.9334 22.2524 14.9334 22.377C14.9334 22.5024 14.9156 22.6095 14.88 22.6983C14.8447 22.7868 14.7939 22.8543 14.7276 22.901C14.6616 22.9476 14.5823 22.9709 14.4897 22.9709ZM14.4897 22.7957C14.5617 22.7957 14.6185 22.7605 14.6601 22.6899C14.7021 22.619 14.7231 22.5147 14.7231 22.377C14.7231 22.2859 14.7135 22.2094 14.6944 22.1475C14.6753 22.0855 14.6483 22.0389 14.6134 22.0075C14.5786 21.9758 14.5373 21.96 14.4897 21.96C14.4181 21.96 14.3615 21.9954 14.3199 22.0663C14.2783 22.1369 14.2573 22.2404 14.2569 22.377C14.2566 22.4684 14.2658 22.5453 14.2845 22.6076C14.3036 22.67 14.3306 22.717 14.3655 22.7487C14.4003 22.78 14.4418 22.7957 14.4897 22.7957Z" fill="black"/>
<path d="M15.7494 21.8027V22.9491H15.5408V22.0047H15.534L15.2647 22.176V21.9857L15.5509 21.8027H15.7494Z" fill="black"/>
<path d="M16.6143 22.9709C16.5217 22.9709 16.4423 22.9476 16.3759 22.901C16.3099 22.8539 16.2591 22.7862 16.2235 22.6978C16.1883 22.6089 16.1707 22.502 16.1707 22.377C16.1711 22.252 16.1889 22.1456 16.2241 22.0579C16.2597 21.9698 16.3105 21.9027 16.3765 21.8564C16.4428 21.8101 16.5221 21.787 16.6143 21.787C16.7065 21.787 16.7858 21.8101 16.8522 21.8564C16.9185 21.9027 16.9693 21.9698 17.0046 22.0579C17.0402 22.146 17.058 22.2524 17.058 22.377C17.058 22.5024 17.0402 22.6095 17.0046 22.6983C16.9693 22.7868 16.9185 22.8543 16.8522 22.901C16.7862 22.9476 16.7069 22.9709 16.6143 22.9709ZM16.6143 22.7957C16.6863 22.7957 16.7431 22.7605 16.7847 22.6899C16.8267 22.619 16.8477 22.5147 16.8477 22.377C16.8477 22.2859 16.8381 22.2094 16.819 22.1475C16.7999 22.0855 16.7729 22.0389 16.738 22.0075C16.7032 21.9758 16.6619 21.96 16.6143 21.96C16.5427 21.96 16.4861 21.9954 16.4445 22.0663C16.4029 22.1369 16.3819 22.2404 16.3815 22.377C16.3812 22.4684 16.3903 22.5453 16.4091 22.6076C16.4282 22.67 16.4552 22.717 16.4901 22.7487C16.5249 22.78 16.5663 22.7957 16.6143 22.7957Z" fill="black"/>
<path d="M17.874 21.8027V22.9491H17.6654V22.0047H17.6586L17.3893 22.176V21.9857L17.6755 21.8027H17.874Z" fill="black"/>
<path d="M14.6871 20.489V21.6355H14.4785V20.6911H14.4717L14.2024 20.8624V20.6721L14.4886 20.489H14.6871Z" fill="black"/>
<path d="M15.552 21.6573C15.4594 21.6573 15.38 21.634 15.3136 21.5873C15.2476 21.5403 15.1969 21.4726 15.1612 21.3841C15.126 21.2953 15.1084 21.1884 15.1084 21.0634C15.1088 20.9384 15.1266 20.832 15.1618 20.7443C15.1974 20.6562 15.2482 20.589 15.3142 20.5428C15.3805 20.4965 15.4598 20.4734 15.552 20.4734C15.6442 20.4734 15.7235 20.4965 15.7899 20.5428C15.8562 20.589 15.907 20.6562 15.9423 20.7443C15.9779 20.8324 15.9957 20.9387 15.9957 21.0634C15.9957 21.1888 15.9779 21.2959 15.9423 21.3847C15.907 21.4731 15.8562 21.5407 15.7899 21.5873C15.7239 21.634 15.6446 21.6573 15.552 21.6573ZM15.552 21.4821C15.624 21.4821 15.6808 21.4468 15.7224 21.3763C15.7644 21.3054 15.7854 21.2011 15.7854 21.0634C15.7854 20.9723 15.7758 20.8958 15.7567 20.8339C15.7376 20.7719 15.7106 20.7253 15.6757 20.6939C15.6409 20.6622 15.5996 20.6463 15.552 20.6463C15.4804 20.6463 15.4238 20.6818 15.3822 20.7527C15.3406 20.8232 15.3196 20.9268 15.3192 21.0634C15.3189 21.1548 15.3281 21.2317 15.3468 21.294C15.3659 21.3563 15.3929 21.4033 15.4278 21.4351C15.4626 21.4664 15.504 21.4821 15.552 21.4821Z" fill="black"/>
<path d="M16.8117 20.489V21.6355H16.6031V20.6911H16.5963L16.327 20.8624V20.6721L16.6132 20.489H16.8117Z" fill="black"/>
<path d="M17.6766 21.6573C17.584 21.6573 17.5046 21.634 17.4382 21.5873C17.3722 21.5403 17.3214 21.4726 17.2858 21.3841C17.2506 21.2953 17.233 21.1884 17.233 21.0634C17.2334 20.9384 17.2512 20.832 17.2864 20.7443C17.322 20.6562 17.3728 20.589 17.4388 20.5428C17.5051 20.4965 17.5844 20.4734 17.6766 20.4734C17.7688 20.4734 17.8481 20.4965 17.9145 20.5428C17.9808 20.589 18.0316 20.6562 18.0668 20.7443C18.1025 20.8324 18.1203 20.9387 18.1203 21.0634C18.1203 21.1888 18.1025 21.2959 18.0668 21.3847C18.0316 21.4731 17.9808 21.5407 17.9145 21.5873C17.8485 21.634 17.7692 21.6573 17.6766 21.6573ZM17.6766 21.4821C17.7486 21.4821 17.8054 21.4468 17.847 21.3763C17.889 21.3054 17.91 21.2011 17.91 21.0634C17.91 20.9723 17.9004 20.8958 17.8813 20.8339C17.8622 20.7719 17.8352 20.7253 17.8003 20.6939C17.7655 20.6622 17.7242 20.6463 17.6766 20.6463C17.605 20.6463 17.5484 20.6818 17.5068 20.7527C17.4652 20.8232 17.4442 20.9268 17.4438 21.0634C17.4435 21.1548 17.4526 21.2317 17.4714 21.294C17.4905 21.3563 17.5175 21.4033 17.5524 21.4351C17.5872 21.4664 17.6286 21.4821 17.6766 21.4821Z" fill="black"/>
<path d="M21.0207 19.9636V21.11H20.8121V20.1657H20.8053L20.536 20.337V20.1466L20.8222 19.9636H21.0207Z" fill="black"/>
<path d="M22.4067 21.1319C22.3141 21.1319 22.2346 21.1085 22.1683 21.0619C22.1023 21.0149 22.0515 20.9471 22.0159 20.8587C21.9807 20.7699 21.9631 20.6629 21.9631 20.5379C21.9634 20.4129 21.9812 20.3065 22.0165 20.2188C22.0521 20.1308 22.1029 20.0636 22.1688 20.0173C22.2352 19.971 22.3145 19.9479 22.4067 19.9479C22.4989 19.9479 22.5782 19.971 22.6445 20.0173C22.7109 20.0636 22.7617 20.1308 22.7969 20.2188C22.8325 20.3069 22.8503 20.4133 22.8503 20.5379C22.8503 20.6633 22.8325 20.7704 22.7969 20.8592C22.7617 20.9477 22.7109 21.0152 22.6445 21.0619C22.5786 21.1085 22.4993 21.1319 22.4067 21.1319ZM22.4067 20.9566C22.4787 20.9566 22.5355 20.9214 22.5771 20.8508C22.6191 20.7799 22.64 20.6756 22.64 20.5379C22.64 20.4469 22.6305 20.3704 22.6114 20.3084C22.5922 20.2465 22.5653 20.1998 22.5304 20.1685C22.4955 20.1367 22.4543 20.1209 22.4067 20.1209C22.3351 20.1209 22.2785 20.1563 22.2369 20.2272C22.1953 20.2978 22.1743 20.4013 22.1739 20.5379C22.1735 20.6294 22.1827 20.7062 22.2015 20.7686C22.2206 20.8309 22.2476 20.8779 22.2824 20.9096C22.3173 20.941 22.3587 20.9566 22.4067 20.9566Z" fill="black"/>
</svg>
