<svg width="48" height="48" viewBox="0 0 48 48" fill="none" xmlns="http://www.w3.org/2000/svg">
<rect x="1" y="1" width="46" height="46" rx="7" stroke="white" stroke-width="2"/>
<path d="M25.0957 30.1111H33.7043M25.0957 30.1111L22.8 35M25.0957 30.1111L28.534 22.7888C28.811 22.1988 28.9495 21.9038 29.1391 21.8105C29.3039 21.7295 29.4961 21.7295 29.6609 21.8105C29.8505 21.9038 29.989 22.1988 30.266 22.7888L33.7043 30.1111M33.7043 30.1111L36 35M12 15.4444H19.2M19.2 15.4444H23.4M19.2 15.4444V13M23.4 15.4444H26.4M23.4 15.4444C22.8046 19.0589 21.4231 22.3331 19.3987 25.081M21.6 26.4444C20.865 26.1081 20.1152 25.6403 19.3987 25.081M19.3987 25.081C17.7756 23.8139 16.3233 22.077 15.6 20.3333M19.3987 25.081C17.473 27.6947 14.9657 29.8322 12 31.3333" stroke="white" stroke-width="2" stroke-linecap="round" stroke-linejoin="round"/>
</svg>
